Coordinates
version=1
nRows=15
nColumns=42
inDegrees=yes

Units are S.I. units (second, meters, Newtons, ...)
If the header above contains a line with 'inDegrees', this indicates whether rotational values are in degrees (yes) or radians (no).

endheader
time	pelvis_tilt	pelvis_list	pelvis_rotation	pelvis_tx	pelvis_ty	pelvis_tz	hip_flexion_r	hip_adduction_r	hip_rotation_r	knee_angle_r	knee_adduction_r	knee_angle_r_beta	ankle_angle_r	subtalar_angle_r	mtp_angle_r	hip_flexion_l	hip_adduction_l	hip_rotation_l	knee_angle_l	knee_adduction_l	knee_angle_l_beta	ankle_angle_l	subtalar_angle_l	mtp_angle_l	lumbar_extension	lumbar_bending	lumbar_rotation	arm_flex_r	arm_add_r	arm_rot_r	elbow_flex_r	pro_sup_r	wrist_flex_r	wrist_dev_r	arm_flex_l	arm_add_l	arm_rot_l	elbow_flex_l	pro_sup_l	wrist_flex_l	wrist_dev_l
      2.16000000	      7.07214084	      0.97640472	      4.08580344	     -0.11463430	      0.89145160	      0.21422385	     21.84863251	     -2.13192968	    -23.63065224	     55.80899581	    -14.14423417	      0.97405073	      4.64629972	    -13.57774663	     -7.50032919	     -5.70407439	     10.56256474	     -4.37448708	     15.10533911	    -10.54546289	      0.26363790	     24.02028360	     11.53671364	     -7.50032919	    -27.29973437	      0.32867222	     -0.53298124	      6.73068326	    -15.31752102	     13.79030779	     35.23311115	     90.00000001	      0.00000000	      0.00000000	     14.52653539	    -17.42370761	     15.96598743	     43.85155991	     90.00000001	      0.00000000	      0.00000000
      2.17000000	      7.07436040	      0.85952832	      4.51445676	     -0.10312285	      0.89081650	      0.21352778	     22.57431095	     -2.03700115	    -23.93158723	     52.67772061	    -13.72272650	      0.91939967	      5.23961524	    -12.44537685	     -7.50029413	     -6.70184039	     10.20585927	     -5.05951064	     14.69285560	    -10.59548349	      0.25643871	     24.91280163	     13.53321011	     -7.50029413	    -27.34000233	      0.64229033	     -0.91075042	      5.98248791	    -15.12648554	     13.71073181	     35.03804706	     90.00000001	      0.00000000	      0.00000000	     15.54207047	    -17.90023060	     15.88566937	     44.98468537	     90.00000001	      0.00000000	      0.00000000
      2.18000000	      7.01476667	      0.86362437	      4.88255176	     -0.09188981	      0.88992687	      0.21283546	     23.30465845	     -2.08728326	    -23.95725334	     49.48928057	    -13.08094473	      0.86375089	      5.63337695	    -11.91740701	     -7.50028253	     -7.73631341	     10.08069624	     -4.96307742	     14.22069187	    -10.57131625	      0.24819790	     25.50155373	     14.08938897	     -7.50028253	    -27.38224878	      0.80645243	     -1.29766273	      5.35738727	    -14.88302765	     13.61161974	     34.68802617	     90.00000001	      0.00000000	      0.00000000	     16.54605345	    -18.36740290	     15.70971161	     46.17998307	     90.00000001	      0.00000000	      0.00000000
      2.19000000	      6.98698161	      0.85112745	      5.26719498	     -0.08053096	      0.88886364	      0.21222247	     23.88080741	     -2.14484078	    -24.60791897	     46.04756509	    -12.81921464	      0.80368162	      6.36572079	    -10.17720832	     -7.50025848	     -8.72376615	      9.87592487	     -5.08184372	     13.87192409	    -10.54137447	      0.24211075	     26.16024071	     15.05281453	     -7.50025848	    -27.44729981	      0.98859169	     -1.63881848	      4.67775228	    -14.61990649	     13.35911462	     34.41960688	     90.00000001	      0.00000000	      0.00000000	     17.61534762	    -18.78873254	     15.59591384	     47.21893841	     90.00000001	      0.00000000	      0.00000000
      2.20000000	      6.87839070	      0.85214068	      5.57690350	     -0.06945743	      0.88751429	      0.21182460	     24.48914385	     -2.14505820	    -25.08558090	     42.52857369	    -12.44675795	      0.74226364	      6.81327021	     -9.06033427	     -7.50024873	     -9.53105287	      9.70312822	     -4.97820587	     13.73611433	    -10.45013550	      0.23974042	     26.85490313	     15.28511128	     -7.50024873	    -27.47763198	      1.11665528	     -1.94762729	      4.14550653	    -14.33124042	     13.21832511	     34.01384520	     90.00000001	      0.00000000	      0.00000000	     18.66025559	    -19.19797466	     15.40902746	     48.26980235	     90.00000001	      0.00000000	      0.00000000
      2.21000000	      6.82995366	      0.87616552	      5.87496810	     -0.05803844	      0.88600773	      0.21139981	     24.94251977	     -2.26448759	    -26.49891259	     38.89104423	    -12.51970837	      0.67877677	      7.93461418	     -5.68527190	     -7.50022904	    -10.42334791	      9.57936924	     -5.00727215	     13.56175602	    -10.48053976	      0.23669729	     27.43129935	     16.00824889	     -7.50022904	    -27.52758165	      1.22711761	     -2.17089991	      3.47806799	    -14.05271517	     12.80329741	     33.75208998	     90.00000001	      0.00000000	      0.00000000	     19.72458783	    -19.51629022	     15.28888742	     49.16630725	     90.00000001	      0.00000000	      0.00000000
      2.22000000	      6.33667971	      1.03709937	      5.99658625	     -0.04741388	      0.88357751	      0.21112195	     26.00491931	     -2.41878593	    -26.71135600	     35.65031586	    -12.03151783	      0.62221539	      8.32351341	     -4.69391487	     -7.50022413	    -10.59612672	      9.84883859	     -4.89885527	     13.78322184	    -10.73364856	      0.24056260	     28.00807267	     15.87246919	     -7.50022413	    -27.19831763	      1.09890661	     -2.34732935	      2.95199074	    -13.82496765	     12.76621289	     33.42207032	     90.00000001	      0.00000000	      0.00000000	     20.75026288	    -19.77007201	     15.10335302	     49.99841539	     90.00000001	      0.00000000	      0.00000000
      2.23000000	      6.52940176	      0.94594034	      6.28500749	     -0.03549874	      0.88218075	      0.21106465	     25.98987363	     -2.43340388	    -29.24970223	     31.94316025	    -12.35270320	      0.55751332	      9.77481586	      1.08563840	     -7.50020696	    -11.72643984	      9.41227112	     -4.98046533	     13.75034947	    -10.51217567	      0.23998887	     28.74639464	     16.43398352	     -7.50020696	    -27.47248981	      1.33246361	     -2.47671674	      2.36506918	    -13.46424820	     12.07282902	     33.09269943	     90.00000001	      0.00000000	      0.00000000	     21.72657909	    -20.02088498	     14.92973695	     50.82206489	     90.00000001	      0.00000000	      0.00000000
      2.24000000	      6.31132319	      1.00065085	      6.39017506	     -0.02414796	      0.87985385	      0.21114744	     26.59113168	     -2.54780856	    -30.81006576	     28.86459160	    -12.22571248	      0.50378216	     10.65265343	      5.07314864	     -7.50019148	    -12.18458128	      9.38967262	     -5.11866886	     14.08732298	    -10.60533400	      0.24587017	     29.46359781	     16.48226667	     -7.50019148	    -27.35885746	      1.31641734	     -2.53289415	      1.85108065	    -13.17950677	     11.72379939	     32.73553470	     90.00000001	      0.00000000	      0.00000000	     22.63457896	    -20.20526906	     14.69823850	     51.57428332	     90.00000001	      0.00000000	      0.00000000
      2.25000000	      6.04831785	      1.08701567	      6.43567768	     -0.01268453	      0.87731649	      0.21132794	     27.25554915	     -2.68777187	    -32.23839108	     26.21124383	    -12.01499895	      0.45747251	     11.38113819	      9.04372965	     -7.50017605	    -12.59148969	      9.43022534	     -5.24663311	     14.45562311	    -10.71447847	      0.25229822	     30.18453533	     16.50526400	     -7.50017605	    -27.19062628	      1.24410743	     -2.54191048	      1.36648895	    -12.89908849	     11.35541805	     32.37050993	     90.00000001	      0.00000000	      0.00000000	     23.46239840	    -20.34132267	     14.43631133	     52.28746492	     90.00000001	      0.00000000	      0.00000000
      2.26000000	      5.80392917	      1.15651520	      6.45238930	     -0.00110102	      0.87469659	      0.21158253	     27.89583145	     -2.78139031	    -33.55787821	     24.00780749	    -11.79012710	      0.41901529	     11.93294019	     12.74794509	     -7.50016296	    -12.99295808	      9.44856678	     -5.43634944	     14.89101236	    -10.82901116	      0.25989719	     30.79467207	     16.47725351	     -7.50016296	    -27.03008575	      1.18600456	     -2.50666507	      0.90899570	    -12.65180288	     10.98636055	     32.04888898	     90.00000001	      0.00000000	      0.00000000	     24.19775625	    -20.40595247	     14.07023351	     52.98040025	     90.00000001	      0.00000000	      0.00000000
      2.27000000	      5.39349181	      1.30432885	      6.37333929	      0.01032375	      0.87178404	      0.21193090	     28.70735798	     -2.78072158	    -33.66130317	     22.34052348	    -11.35910982	      0.38991569	     11.97484456	     14.07808490	     -7.50016085	    -13.19786952	      9.68430623	     -5.44081922	     15.37245768	    -11.06981280	      0.26830000	     31.32021649	     16.23648697	     -7.50016085	    -26.71430246	      1.00619851	     -2.45118221	      0.49762836	    -12.46874621	     10.93479612	     31.76479784	     90.00000001	      0.00000000	      0.00000000	     24.83662853	    -20.48493706	     13.75174766	     53.63653438	     90.00000001	      0.00000000	      0.00000000
      2.28000000	      5.33120522	      1.27012372	      6.42595621	      0.02270660	      0.86929812	      0.21241302	     29.14066274	     -2.80590654	    -35.43904546	     21.19091218	    -11.46201378	      0.36985119	     12.54212410	     18.71726415	     -7.50015144	    -13.76444467	      9.41107930	     -5.93329371	     15.95980559	    -11.07029255	      0.27855116	     31.93513814	     16.31952694	     -7.50015144	    -26.65506571	      1.07395723	     -2.40191568	      0.12743676	    -12.18981586	     10.39114500	     31.36848267	     90.00000001	      0.00000000	      0.00000000	     25.29001078	    -20.44088359	     13.09876083	     54.32436135	     90.00000001	      0.00000000	      0.00000000
      2.29000000	      5.13831119	      1.38727508	      6.38435865	      0.03478823	      0.86668821	      0.21278051	     29.67781689	     -2.76445774	    -35.40379389	     20.68176120	    -11.28779954	      0.36096483	     12.57939752	     19.18980429	     -7.50015056	    -14.29856528	      9.50541181	     -5.91279632	     16.37204955	    -11.21256954	      0.28574617	     32.18983020	     16.26925338	     -7.50015056	    -26.50864485	      0.95713961	     -2.26819878	     -0.25137960	    -12.11036905	     10.39098998	     31.12839653	     90.00000001	      0.00000000	      0.00000000	     25.79310146	    -20.42673505	     12.87134749	     54.90220524	     90.00000001	      0.00000000	      0.00000000
      2.30000000	      5.09062528	      1.24226307	      6.47967881	      0.04763514	      0.86425590	      0.21344283	     29.95756358	     -2.45733627	    -36.16139360	     20.42420123	    -11.57125958	      0.35646956	     12.79510367	     22.20429948	     -7.50014058	    -14.76209905	      9.03385424	     -6.55588203	     17.20485233	    -11.25378492	      0.30028132	     32.86029106	     16.58040299	     -7.50014058	    -26.40733629	      1.15797203	     -2.32221843	     -0.48684698	    -11.85456292	     10.04003945	     30.75827772	     90.00000001	      0.00000000	      0.00000000	     25.85820861	    -20.43407325	     12.03621880	     55.66407861	     90.00000001	      0.00000000	      0.00000000
